HIERARCHY
ROOT hip
{
  OFFSET 0 0 0
  CHANNELS 6 Xposition Yposition Zposition Zrotation Yrotation Xrotation
  JOINT abdomen
  {
    OFFSET 0 20.6881 -0.73152
    CHANNELS 3 Zrotation Xrotation Yrotation
    JOINT chest
    {
      OFFSET 0 11.7043 -0.48768
      CHANNELS 3 Zrotation Xrotation Yrotation
      JOINT neck
      {
        OFFSET 0 22.1894 -2.19456
        CHANNELS 3 Zrotation Xrotation Yrotation
        JOINT head
        {
          OFFSET -0.24384 7.07133 1.2192
          CHANNELS 3 Zrotation Xrotation Yrotation
          JOINT leftEye
          {
            OFFSET 4.14528 8.04674 8.04672
            CHANNELS 3 Zrotation Xrotation Yrotation
            End Site
            {
              OFFSET 1 0 0
            }
          }
          JOINT rightEye
          {
            OFFSET -3.6576 8.04674 8.04672
            CHANNELS 3 Zrotation Xrotation Yrotation
            End Site
            {
              OFFSET 1 0 0
            }
          }
        }
      }
      JOINT rCollar
      {
        OFFSET -2.68224 19.2634 -4.8768
        CHANNELS 3 Zrotation Xrotation Yrotation
        JOINT rShldr
        {
          OFFSET -8.77824 -1.95073 1.46304
          CHANNELS 3 Zrotation Xrotation Yrotation
          JOINT rForeArm
          {
            OFFSET -28.1742 -1.7115 0.48768
            CHANNELS 3 Zrotation Xrotation Yrotation
            JOINT rHand
            {
              OFFSET -22.5879 0.773209 7.07136
              CHANNELS 3 Zrotation Xrotation Yrotation
              JOINT rThumb1
              {
                OFFSET -1.2192 -0.487915 3.41376
                CHANNELS 3 Zrotation Xrotation Yrotation
                JOINT rThumb2
                {
                  OFFSET -3.37035 -0.52449 3.41376
                  CHANNELS 3 Zrotation Xrotation Yrotation
                  End Site
                  {
                    OFFSET -1.78271 -1.18214 1.43049
                  }
                }
              }
              JOINT rIndex1
              {
                OFFSET -7.75947 0.938293 5.60832
                CHANNELS 3 Zrotation Xrotation Yrotation
                JOINT rIndex2
                {
                  OFFSET -2.54057 -0.884171 1.56538
                  CHANNELS 3 Zrotation Xrotation Yrotation
                  End Site
                  {
                    OFFSET -1.62519 -0.234802 1.16502
                  }
                }
              }
              JOINT rMid1
              {
                OFFSET -8.24714 1.18213 3.41376
                CHANNELS 3 Zrotation Xrotation Yrotation
                JOINT rMid2
                {
                  OFFSET -3.10165 -0.590103 1.0647
                  CHANNELS 3 Zrotation Xrotation Yrotation
                  End Site
                  {
                    OFFSET -2.48547 -0.328903 0.83742
                  }
                }
              }
              JOINT rRing1
              {
                OFFSET -8.82822 0.546677 1.51678
                CHANNELS 3 Zrotation Xrotation Yrotation
                JOINT rRing2
                {
                  OFFSET -2.60934 -0.819778 -0.0198488
                  CHANNELS 3 Zrotation Xrotation Yrotation
                  End Site
                  {
                    OFFSET -2.33842 -0.294052 0.168128
                  }
                }
              }
              JOINT rPinky1
              {
                OFFSET -8.27202 -0.0477905 -0.4584
                CHANNELS 3 Zrotation Xrotation Yrotation
                JOINT rPinky2
                {
                  OFFSET -1.82734 -0.647385 -0.700984
                  CHANNELS 3 Zrotation Xrotation Yrotation
                  End Site
                  {
                    OFFSET -1.69225 -0.51767 -0.607171
                  }
                }
              }
            }
          }
        }
      }
      JOINT lCollar
      {
        OFFSET 2.68224 19.2634 -4.8768
        CHANNELS 3 Zrotation Xrotation Yrotation
        JOINT lShldr
        {
          OFFSET 8.77824 -1.95073 1.46304
          CHANNELS 3 Zrotation Xrotation Yrotation
          JOINT lForeArm
          {
            OFFSET 28.1742 -1.7115 0.48768
            CHANNELS 3 Zrotation Xrotation Yrotation
            JOINT lHand
            {
              OFFSET 22.5879 0.773209 7.07136
              CHANNELS 3 Zrotation Xrotation Yrotation
              JOINT lThumb1
              {
                OFFSET 1.2192 -0.487915 3.41376
                CHANNELS 3 Zrotation Xrotation Yrotation
                JOINT lThumb2
                {
                  OFFSET 3.37035 -0.52449 3.41376
                  CHANNELS 3 Zrotation Xrotation Yrotation
                  End Site
                  {
                    OFFSET 1.78271 -1.18214 1.43049
                  }
                }
              }
              JOINT lIndex1
              {
                OFFSET 7.75947 0.938293 5.60832
                CHANNELS 3 Zrotation Xrotation Yrotation
                JOINT lIndex2
                {
                  OFFSET 2.54057 -0.884171 1.56538
                  CHANNELS 3 Zrotation Xrotation Yrotation
                  End Site
                  {
                    OFFSET 1.62519 -0.234802 1.16502
                  }
                }
              }
              JOINT lMid1
              {
                OFFSET 8.24714 1.18213 3.41376
                CHANNELS 3 Zrotation Xrotation Yrotation
                JOINT lMid2
                {
                  OFFSET 3.10165 -0.590103 1.0647
                  CHANNELS 3 Zrotation Xrotation Yrotation
                  End Site
                  {
                    OFFSET 2.48547 -0.328903 0.83742
                  }
                }
              }
              JOINT lRing1
              {
                OFFSET 8.82822 0.546677 1.51678
                CHANNELS 3 Zrotation Xrotation Yrotation
                JOINT lRing2
                {
                  OFFSET 2.60934 -0.819778 -0.0198488
                  CHANNELS 3 Zrotation Xrotation Yrotation
                  End Site
                  {
                    OFFSET 2.33842 -0.294052 0.168128
                  }
                }
              }
              JOINT lPinky1
              {
                OFFSET 8.27202 -0.0477905 -0.4584
                CHANNELS 3 Zrotation Xrotation Yrotation
                JOINT lPinky2
                {
                  OFFSET 1.82734 -0.647385 -0.700984
                  CHANNELS 3 Zrotation Xrotation Yrotation
                  End Site
                  {
                    OFFSET 1.69225 -0.51767 -0.607171
                  }
                }
              }
            }
          }
        }
      }
    }
  }
  JOINT rButtock
  {
    OFFSET -8.77824 4.35084 1.2192
    CHANNELS 3 Zrotation Xrotation Yrotation
    JOINT rThigh
    {
      OFFSET 0 -1.70687 -2.19456
      CHANNELS 3 Zrotation Xrotation Yrotation
      JOINT rShin
      {
        OFFSET 0 -36.8199 0.73152
        CHANNELS 3 Zrotation Xrotation Yrotation
        JOINT rFoot
        {
          OFFSET 0.73152 -45.1104 -5.12064
          CHANNELS 3 Zrotation Xrotation Yrotation
          End Site
          {
            OFFSET -1.1221 -3.69964 12.103
          }
        }
      }
    }
  }
  JOINT lButtock
  {
    OFFSET 8.77824 4.35084 1.2192
    CHANNELS 3 Zrotation Xrotation Yrotation
    JOINT lThigh
    {
      OFFSET 0 -1.70687 -2.19456
      CHANNELS 3 Zrotation Xrotation Yrotation
      JOINT lShin
      {
        OFFSET 0 -36.8199 0.73152
        CHANNELS 3 Zrotation Xrotation Yrotation
        JOINT lFoot
        {
          OFFSET -0.73152 -45.1104 -5.12064
          CHANNELS 3 Zrotation Xrotation Yrotation
          End Site
          {
            OFFSET 1.1221 -3.69964 12.103
          }
        }
      }
    }
  }
}
MOTION
Frames:	5
Frame Time:	0.00833333
131.162 85.0754 -17.0824 144.942 -448.572 -140.77 -6.04647 10.1718 3.30669 7.42045 -15.2841 1.80213 -9.49025 18.5282 -0.766659 11.112 -21.2474 -0.0988017 -0.0 0.0 0.0 -0.0 0.0 0.0 -1.022e-13 -4.47217e-12 2.95692e-14 88.0298 31.2085 -8.48333 -25.6169 -22.4895 55.2127 -0.1619 -11.4003 -1.62387 6.73434e-10 -2.07695e-10 5.2188e-10 1.15854e-09 -3.56863e-10 9.0809e-10 6.73437e-10 -2.07692e-10 5.21875e-10 7.73091 5.47488 0.417314 6.73432e-10 -2.07693e-10 5.2188e-10 2.90554 0.965183 0.102902 6.73442e-10 -2.07693e-10 5.2188e-10 10.2786 0.731801 0.0259123 6.73425e-10 -2.07694e-10 5.21887e-10 2.22167 -0.733487 -0.20892 -1.02309e-13 -4.47217e-12 2.92182e-14 -36.066 -39.487 -34.8722 26.188 -23.9294 -57.6649 1.80878 35.0571 -5.66959 2.13839e-10 -1.95237e-10 5.56901e-11 3.70108e-10 -3.32812e-10 9.11619e-11 2.13831e-10 -1.9524e-10 5.5702e-11 -7.73091 5.47488 -0.417314 2.13843e-10 -1.95235e-10 5.56862e-11 -2.90554 0.965183 -0.102902 2.13834e-10 -1.95234e-10 5.56897e-11 -10.2786 0.731801 -0.0259123 2.13841e-10 -1.95232e-10 5.56856e-11 -2.22167 -0.733487 0.20892 -2.03217e-16 0.0 -3.88251e-19 -0.290748 -36.2215 -3.24254 -0.526461 47.4426 0.797151 -0.638731 -13.6585 -0.691162 2.03217e-16 0.0 3.88251e-19 -6.01537 -18.2623 5.26103 0.375161 41.7178 -0.750645 1.21667 -10.2731 2.97997
131.017 85.0979 -16.8727 115.405 -447.869 -111.847 -7.19094 11.3745 3.23788 6.56706 -15.2859 1.623 -10.0294 18.3919 -0.973715 12.5219 -21.5202 -0.19388 -0.0 0.0 0.0 -0.0 0.0 0.0 -1.49675e-13 -6.23515e-12 2.59453e-14 88.9446 32.4405 -7.75052 -25.7394 -22.7843 55.6973 -0.155139 -11.1614 -1.58895 8.08513e-10 -8.05941e-10 1.77131e-09 1.37922e-09 -1.38986e-09 3.06819e-09 8.08514e-10 -8.05935e-10 1.7713e-09 7.73091 5.47488 0.417314 8.08511e-10 -8.05938e-10 1.77131e-09 2.90554 0.965183 0.102902 8.08523e-10 -8.05937e-10 1.77131e-09 10.2786 0.731801 0.0259123 8.08508e-10 -8.05938e-10 1.77131e-09 2.22167 -0.733487 -0.20892 -1.49682e-13 -6.23515e-12 2.56918e-14 -37.3437 -38.9872 -37.8476 26.0876 -23.6612 -57.1972 1.74165 34.4842 -5.55022 -2.79699e-10 1.58079e-10 -1.80054e-10 -4.88265e-10 2.76773e-10 -3.02503e-10 -2.79706e-10 1.58074e-10 -1.80039e-10 -7.73091 5.47488 -0.417314 -2.79697e-10 1.58078e-10 -1.80056e-10 -2.90554 0.965183 -0.102902 -2.79704e-10 1.58079e-10 -1.80051e-10 -10.2786 0.731801 -0.0259123 -2.79696e-10 1.58083e-10 -1.80053e-10 -2.22167 -0.733487 0.20892 -2.03217e-16 0.0 -3.88251e-19 -1.43825 -35.3788 -2.92043 -0.501519 46.6482 0.778828 -0.838744 -14.2695 -1.29956 2.03217e-16 0.0 3.88251e-19 -7.13183 -17.0656 5.64299 0.359006 40.9385 -0.726234 1.10746 -10.0809 2.60504
130.883 85.0884 -16.6939 106.538 -446.905 -103.391 -8.30587 12.1642 3.09435 5.73347 -15.1064 1.42252 -10.5035 18.1599 -1.19893 13.8036 -21.5517 -0.364488 -0.0 0.0 0.0 -0.0 0.0 0.0 -1.52128e-13 -6.57729e-12 2.27608e-14 89.5383 34.0401 -6.77986 -25.8198 -22.981 56.0315 -0.150953 -11.0076 -1.56652 7.76711e-10 -1.06288e-09 2.27545e-09 1.31921e-09 -1.83398e-09 3.93876e-09 7.76711e-10 -1.06288e-09 2.27544e-09 7.73091 5.47488 0.417314 7.76708e-10 -1.06288e-09 2.27545e-09 2.90554 0.965183 0.102902 7.7672e-10 -1.06288e-09 2.27544e-09 10.2786 0.731801 0.0259123 7.76707e-10 -1.06288e-09 2.27545e-09 2.22167 -0.733487 -0.20892 -1.52072e-13 -6.57729e-12 2.25621e-14 -38.2723 -38.2137 -40.3984 25.9425 -23.288 -56.5285 1.5587 33.06 -5.24863 -5.42674e-10 3.72274e-10 -3.17489e-10 -9.45848e-10 6.46273e-10 -5.32446e-10 -5.42681e-10 3.72268e-10 -3.17473e-10 -7.73091 5.47488 -0.417314 -5.42673e-10 3.72272e-10 -3.17489e-10 -2.90554 0.965183 -0.102902 -5.42678e-10 3.72273e-10 -3.17485e-10 -10.2786 0.731801 -0.0259123 -5.42671e-10 3.72278e-10 -3.17486e-10 -2.22167 -0.733487 0.20892 -2.03217e-16 0.0 -3.88251e-19 -2.53672 -34.7311 -2.62686 -0.479928 45.9288 0.761145 -0.967385 -14.7171 -1.66647 2.03217e-16 0.0 3.88251e-19 -8.1183 -16.1816 6.17425 0.346604 40.3043 -0.705284 0.949614 -9.95704 2.02465
130.776 85.0102 -16.4836 98.6036 -445.829 -95.5985 -9.49859 12.4167 2.89597 4.9442 -14.6216 1.20136 -10.9164 17.779 -1.45627 14.923 -21.2831 -0.634138 -0.0 0.0 0.0 -0.0 0.0 0.0 -6.98391e-14 -4.49412e-12 2.27674e-14 89.5814 36.1758 -5.38994 -25.8432 -23.0388 56.1347 -0.150831 -11.0004 -1.5655 4.15122e-10 -7.44617e-10 1.62487e-09 7.01317e-10 -1.2858e-09 2.81066e-09 4.15122e-10 -7.44613e-10 1.62486e-09 7.73091 5.47488 0.417314 4.15119e-10 -7.44615e-10 1.62487e-09 2.90554 0.965183 0.102902 4.15131e-10 -7.44615e-10 1.62487e-09 10.2786 0.731801 0.0259123 4.15118e-10 -7.44614e-10 1.62487e-09 2.22167 -0.733487 -0.20892 -6.97772e-14 -4.49412e-12 2.25547e-14 -38.778 -37.1616 -42.5134 25.7197 -22.7369 -55.5904 1.28388 30.5546 -4.7481 -4.85568e-10 4.0052e-10 -2.81738e-10 -8.46937e-10 6.95164e-10 -4.72612e-10 -4.85574e-10 4.00515e-10 -2.81723e-10 -7.73091 5.47488 -0.417314 -4.85567e-10 4.00518e-10 -2.81737e-10 -2.90554 0.965183 -0.102902 -4.85572e-10 4.00519e-10 -2.81733e-10 -10.2786 0.731801 -0.0259123 -4.85564e-10 4.00525e-10 -2.81736e-10 -2.22167 -0.733487 0.20892 -2.03217e-16 0.0 -3.88251e-19 -3.69244 -34.3506 -2.3997 -0.463609 45.3415 0.744077 -0.940149 -14.8236 -1.57426 2.03217e-16 0.0 3.88251e-19 -8.97476 -15.6308 7.05504 0.336894 39.7874 -0.686301 0.699579 -9.92427 1.06827
130.659 84.8733 -16.2967 95.7938 -444.608 -92.7798 -10.752 12.3024 2.6469 4.14475 -13.9114 0.95464 -11.3179 17.2884 -1.74882 15.9914 -20.8057 -0.987053 -0.0 0.0 0.0 -0.0 0.0 0.0 6.72457e-14 -8.09728e-13 2.44163e-14 89.1592 38.7021 -3.65738 -25.8294 -23.0046 56.0782 -0.153293 -11.0874 -1.5782 -1.58309e-10 -8.06692e-11 2.5891e-10 -2.75215e-10 -1.41447e-10 4.44186e-10 -1.58307e-10 -8.06676e-11 2.58902e-10 7.73091 5.47488 0.417314 -1.58311e-10 -8.06694e-11 2.58913e-10 2.90554 0.965183 0.102902 -1.58301e-10 -8.06693e-11 2.58909e-10 10.2786 0.731801 0.0259123 -1.58313e-10 -8.06676e-11 2.58916e-10 2.22167 -0.733487 -0.20892 6.72832e-14 -8.09731e-13 2.41492e-14 -39.0155 -35.8875 -44.3577 25.4397 -22.0744 -54.5063 0.997573 27.2528 -4.14014 -2.25198e-10 3.21969e-10 -1.52698e-10 -3.95148e-10 5.60229e-10 -2.57572e-10 -2.25202e-10 3.21965e-10 -1.52687e-10 -7.73091 5.47488 -0.417314 -2.25198e-10 3.21967e-10 -1.52697e-10 -2.90554 0.965183 -0.102902 -2.25203e-10 3.21968e-10 -1.52696e-10 -10.2786 0.731801 -0.0259123 -2.25194e-10 3.21974e-10 -1.52699e-10 -2.22167 -0.733487 0.20892 -2.03217e-16 0.0 -3.88251e-19 -4.91553 -34.135 -2.18088 -0.450246 44.8179 0.726612 -0.778548 -14.5977 -1.09254 2.03217e-16 0.0 3.88251e-19 -9.75802 -15.3022 8.19393 0.329137 39.3536 -0.66834 0.371625 -9.94846 -0.193477
